<?xml version="1.0" encoding="utf-8"?>
<!-- Generator: Adobe Illustrator 25.4.1, SVG Export Plug-In . SVG Version: 6.00 Build 0)  -->
<svg version="1.0" id="katman_1" xmlns="http://www.w3.org/2000/svg" xmlns:xlink="http://www.w3.org/1999/xlink" x="0px" y="0px"
	 viewBox="0 0 1024 768" style="enable-background:new 0 0 1024 768;" xml:space="preserve">
<style type="text/css">
	.st0{fill-rule:evenodd;clip-rule:evenodd;fill:#524998;}
</style>
<g>
	<path class="st0" d="M331.3,137.8c-35.2,0-61.3,30.9-60.2,64.4c1.1,32.1-0.3,73.8-10.8,107.7C249.8,344,232,365.5,203,368.3v31.2
		c29,2.8,46.8,24.4,57.4,58.4c10.5,33.9,11.9,75.6,10.8,107.7c-1.1,33.5,24.9,64.4,60.2,64.4h361.3c35.3,0,61.4-30.9,60.2-64.4
		c-1.1-32.1,0.3-73.8,10.9-107.7c10.5-34,28.2-55.6,57.3-58.4v-31.2c-29-2.8-46.8-24.4-57.3-58.4c-10.5-33.9-12-75.6-10.9-107.7
		c1.2-33.5-24.9-64.4-60.2-64.4H331.3z M622,440.8c0,46.1-34.4,74-91.4,74h-97.1c-5.8,0-10.5-4.7-10.5-10.5V263.5
		c0-5.8,4.7-10.5,10.5-10.5H530c47.6,0,78.8,25.8,78.8,65.3c0,27.7-21,52.6-47.8,57v1.5C597.4,380.8,622,406,622,440.8L622,440.8z
		 M520,286.3h-55.4v78.1h46.6c36.1,0,56-14.5,56-40.4C567.2,299.6,550.1,286.3,520,286.3L520,286.3z M464.6,395.5v86.2H522
		c37.6,0,57.5-15,57.5-43.4c0-28.2-20.4-42.8-59.9-42.8H464.6z M464.6,395.5"/>
</g>
</svg>
