<svg width="128" height="128" viewBox="0 0 128 128" fill="none" xmlns="http://www.w3.org/2000/svg">
<g clip-path="url(#clip0_206_38)">
<path d="M88.69 88.11C79.69 106.51 63.93 118.89 43.08 122.96C39.8831 123.743 36.6013 124.126 33.31 124.1C21.31 124.1 10.31 119.1 4.97 110.91C-2.2 100 -4.64 76.87 19 59.76C19.48 62.37 20.46 65.95 21.11 68.07C16.4693 71.5177 12.6708 75.9727 10 81.1C5.6 89.74 6.09 98.37 11.3 106.35C14.9 111.73 20.6 115 27.93 116C37.0854 117.159 46.3733 115.41 54.48 111C67.19 104.32 75.66 96.34 81.2 85.43C79.6335 83.8111 78.7063 81.6797 78.59 79.43C78.5063 77.0159 79.3837 74.6671 81.0298 72.8992C82.6758 71.1313 84.956 70.0886 87.37 70H87.71C90.058 69.9882 92.3206 70.8795 94.0297 72.4895C95.7389 74.0994 96.7637 76.3048 96.8921 78.6493C97.0206 80.9937 96.2429 83.2979 94.7199 85.0849C93.1969 86.872 91.0452 88.0051 88.71 88.25L88.69 88.11ZM117.36 67.91C129.57 81.75 129.9 98.04 125.18 107.49C120.78 116.12 109.18 124.76 93.58 124.76C86.2976 124.611 79.1337 122.889 72.58 119.71C74.87 118.08 78.12 115.47 79.91 113.84C84.9639 116.029 90.4027 117.192 95.91 117.26C106.01 117.26 113.66 112.54 118.22 103.91C121.15 98.21 121.32 91.53 118.55 84.69C115.151 76.0838 109.103 68.7818 101.28 63.84C91.0167 56.9214 78.9175 53.2332 66.54 53.25H63.61C62.9268 54.8283 61.8153 56.1837 60.4014 57.1628C58.9875 58.1419 57.3277 58.7056 55.61 58.79H55.3C52.9242 58.7608 50.6533 57.8065 48.9697 56.1299C47.2861 54.4533 46.3225 52.1864 46.2834 49.8107C46.2444 47.435 47.133 45.1377 48.7606 43.4067C50.3881 41.6756 52.6264 40.6473 55 40.54H55.33C56.9841 40.5412 58.6058 40.9983 60.0171 41.8609C61.4284 42.7236 62.5746 43.9585 63.33 45.43H65.94C86.74 45.43 105 53.41 117.36 67.91ZM34.61 90.91C34.4388 89.2494 34.841 87.5802 35.75 86.18C26.63 70.38 21.75 50.35 29.24 29.5C34.61 13.83 48.13 3.23999 62.79 3.23999C78.43 3.23999 94.72 16.93 96.67 43.31C94.23 42.5 90.67 41.31 88.53 40.87C88 32.24 80.71 10.74 63.44 11.06C57.25 11.23 48.13 14.16 43.44 20.18C37.6386 27.3662 34.2638 36.206 33.8 45.43C32.7007 58.0777 35.6681 70.7461 42.27 81.59C42.6345 81.4568 43.023 81.4023 43.41 81.43H43.73C46.1488 81.3862 48.4859 82.3051 50.2271 83.9845C51.9684 85.6639 52.9712 87.9662 53.015 90.385C53.0588 92.8038 52.1399 95.1409 50.4605 96.8821C48.7811 98.6234 46.4788 99.6262 44.06 99.67H43.73C41.3703 99.6616 39.1049 98.7429 37.4058 97.1054C35.7068 95.4678 34.7053 93.2378 34.61 90.88V90.91Z" fill="#764ABC"/>
</g>
<defs>
<clipPath id="clip0_206_38">
<rect width="128" height="128" fill="white"/>
</clipPath>
</defs>
</svg>
