<svg width="36" height="36" viewBox="0 0 36 36" fill="none" xmlns="http://www.w3.org/2000/svg">
<path d="M33 8.25H13.5C11.85 8.25 10.5 9.6 10.5 11.25V24.75C10.5 26.415 11.85 27.75 13.5 27.75H33C34.665 27.75 36 26.415 36 24.75V11.25C36 9.6 34.665 8.25 33 8.25ZM33 24.75H13.5V13.755L23.25 18.75L33 13.755V24.75ZM23.25 16.215L13.5 11.25H33L23.25 16.215ZM7.5 24.75C7.5 25.005 7.545 25.245 7.575 25.5H1.5C0.672 25.5 0 24.825 0 24C0 23.175 0.672 22.5 1.5 22.5H7.5V24.75ZM4.5 10.5H7.575C7.545 10.755 7.5 10.995 7.5 11.25V13.5H4.5C3.675 13.5 3 12.825 3 12C3 11.175 3.675 10.5 4.5 10.5ZM1.5 18C1.5 17.175 2.175 16.5 3 16.5H7.5V19.5H3C2.175 19.5 1.5 18.825 1.5 18Z" fill="white"/>
</svg>
