<svg width="34" height="34" viewBox="0 0 34 34" fill="none" xmlns="http://www.w3.org/2000/svg">
<path d="M17 2.83334C15.1396 2.83334 13.2974 3.19978 11.5786 3.91172C9.85985 4.62366 8.29813 5.66717 6.98263 6.98266C4.32587 9.63943 2.83331 13.2428 2.83331 17C2.83331 23.2617 6.89915 28.5742 12.5233 30.4583C13.2316 30.5717 13.4583 30.1325 13.4583 29.75C13.4583 29.4242 13.4583 28.5317 13.4583 27.3558C9.53415 28.2058 8.69831 25.4575 8.69831 25.4575C8.04665 23.8142 7.12581 23.375 7.12581 23.375C5.83665 22.4967 7.22498 22.525 7.22498 22.525C8.64165 22.6242 9.39248 23.9842 9.39248 23.9842C10.625 26.1375 12.7075 25.5 13.515 25.16C13.6425 24.2392 14.0108 23.6158 14.4075 23.2617C11.2625 22.9075 7.96165 21.6892 7.96165 16.2917C7.96165 14.7192 8.49998 13.4583 9.42081 12.4525C9.27915 12.0983 8.78331 10.625 9.56248 8.71251C9.56248 8.71251 10.7525 8.33001 13.4583 10.1575C14.5775 9.84584 15.7958 9.69001 17 9.69001C18.2041 9.69001 19.4225 9.84584 20.5416 10.1575C23.2475 8.33001 24.4375 8.71251 24.4375 8.71251C25.2167 10.625 24.7208 12.0983 24.5791 12.4525C25.5 13.4583 26.0383 14.7192 26.0383 16.2917C26.0383 21.7033 22.7233 22.8933 19.5641 23.2475C20.0742 23.6867 20.5416 24.5508 20.5416 25.8683C20.5416 27.7667 20.5416 29.2967 20.5416 29.75C20.5416 30.1325 20.7683 30.5858 21.4908 30.4583C27.115 28.56 31.1667 23.2617 31.1667 17C31.1667 15.1396 30.8002 13.2974 30.0883 11.5787C29.3763 9.85988 28.3328 8.29816 27.0173 6.98266C25.7018 5.66717 24.1401 4.62366 22.4213 3.91172C20.7026 3.19978 18.8604 2.83334 17 2.83334Z" fill="white"/>
</svg>
