<svg width="34" height="34" viewBox="0 0 34 34" fill="none" xmlns="http://www.w3.org/2000/svg">
<path d="M26.9167 4.25C27.6681 4.25 28.3888 4.54851 28.9201 5.07986C29.4515 5.61122 29.75 6.33189 29.75 7.08333V26.9167C29.75 27.6681 29.4515 28.3888 28.9201 28.9201C28.3888 29.4515 27.6681 29.75 26.9167 29.75H7.08333C6.33189 29.75 5.61122 29.4515 5.07986 28.9201C4.54851 28.3888 4.25 27.6681 4.25 26.9167V7.08333C4.25 6.33189 4.54851 5.61122 5.07986 5.07986C5.61122 4.54851 6.33189 4.25 7.08333 4.25H26.9167ZM26.2083 26.2083V18.7C26.2083 17.4751 25.7218 16.3005 24.8557 15.4343C23.9895 14.5682 22.8149 14.0817 21.59 14.0817C20.3858 14.0817 18.9833 14.8183 18.3033 15.9233V14.3508H14.3508V26.2083H18.3033V19.2242C18.3033 18.1333 19.1817 17.2408 20.2725 17.2408C20.7985 17.2408 21.303 17.4498 21.6749 17.8217C22.0469 18.1937 22.2558 18.6982 22.2558 19.2242V26.2083H26.2083ZM9.74667 12.1267C10.3779 12.1267 10.9832 11.8759 11.4296 11.4296C11.8759 10.9832 12.1267 10.3779 12.1267 9.74667C12.1267 8.42917 11.0642 7.3525 9.74667 7.3525C9.11169 7.3525 8.50273 7.60474 8.05374 8.05374C7.60474 8.50273 7.3525 9.11169 7.3525 9.74667C7.3525 11.0642 8.42917 12.1267 9.74667 12.1267ZM11.7158 26.2083V14.3508H7.79167V26.2083H11.7158Z" fill="white"/>
</svg>
